<?xml version="1.0" encoding="utf-8"?>
<!-- Uploaded to: SVG Repo, www.svgrepo.com, Generator: SVG Repo Mixer Tools -->
<svg width="800px" height="800px" viewBox="0 -22.83 359.764 359.764" xmlns="http://www.w3.org/2000/svg"><defs><style>.a{fill:#ffffff;}.b{fill:#211715;}.c{fill:#5199d1;}.d{fill:#7a7473;}</style></defs><path class="a" d="M71.58,232.045c-5.384-3.138-9.378-5.42-9.378-5.42l-45.267-26.25c16.291-9.409,29.48-17.05,32.275-18.68,1.25.73,51.27,29.7,51.27,29.7s1.413.81,3.3,1.91c0,32.736,0,65.5,0,65.5-2.56,1.48-31,17.954-32.288,18.7V232.6"/><path class="b" d="M40.509,189.042q4.858-2.806,9.71-5.62H48.2c6.34,3.7,12.7,7.36,19.054,11.04l27.6,15.986c2.649,1.534,5.3,3.061,7.946,4.6,2.228,1.3,4.244-2.156,2.019-3.454-6.184-3.609-12.391-7.179-18.587-10.767q-14.371-8.323-28.741-16.649c-2.424-1.4-4.852-2.8-7.272-4.214a2.017,2.017,0,0,0-2.019,0q-4.847,2.825-9.71,5.62c-2.228,1.287-.216,4.745,2.019,3.454Z"/><path class="a" d="M58.087,165.261a.7.7,0,0,0-.077.324v23.69a.7.7,0,0,1-.35.6L45.67,196.8l-6.007,3.466,30.778,17.77L88.43,207.645a.7.7,0,0,0,.36-.6v-24.5a.687.687,0,0,0-.36-.6l-29.37-16.97A.71.71,0,0,0,58.087,165.261Z"/><path class="b" d="M72.589,233.772q13.739-7.932,27.455-15.9,2.373-1.375,4.745-2.751c2.225-1.294.213-4.752-2.019-3.454q-13.792,8.022-27.614,16-2.294,1.328-4.586,2.654c-2.228,1.287-.216,4.744,2.019,3.454Z"/><path class="b" d="M105.782,278.8V213.4c0-2.574-4-2.578-4,0v65.4c0,2.574,4,2.578,4,0Z"/><path class="b" d="M46.682,198.518l6.848-3.953,4-2.309c1.237-.714,2.37-1.342,2.48-2.988.127-1.906,0-3.865,0-5.774V166.133c0-.127.012-.261,0-.387-.033-.36.176.035-.039.322l-.717.717.243-.14-1.01.273c-.259.032-.629-.349-.232-.1.192.119.392.227.587.339L61,168.4l7.063,4.081,15.706,9.074,2.621,1.515c.244.141.487.308.743.429.144.068.355.3.15.108l-.514-.883c-.045-.162.056-.223.026-.021a3.575,3.575,0,0,0,0,.507v22.974a5.575,5.575,0,0,0,0,.62c.024.2-.1.3-.026.051l.514-.883c.209-.2-.193.136-.329.215l-1.158.669L82.083,209l-5.34,3.085c-2.229,1.288-.217,4.745,2.019,3.454l9.282-5.363c1.358-.784,2.662-1.433,2.748-3.253.053-1.123,0-2.262,0-3.386v-19.11c0-1.2.2-2.689-.683-3.648a8.516,8.516,0,0,0-2.075-1.377l-4.017-2.321-11.84-6.841-10.164-5.873c-.637-.368-1.265-.78-1.923-1.111a2.756,2.756,0,0,0-3.942,1.5,4.5,4.5,0,0,0-.136,1.339v22.5c0,.206-.12.843-.025.5l.515-.882c.224-.222-.218.151-.366.236l-1.357.783L50.658,191.6l-6,3.46c-2.229,1.287-.217,4.744,2.019,3.454Z"/><path class="a" d="M28.215,206.938v65.377l36.077,20.92s3.062,1.75,7.2,4.163c0-1.329,0-33.463,0-65.4-4.493-2.618-7.816-4.516-7.816-4.516S37.938,212.552,28.215,206.938Z"/><path class="a" d="M27.548,299.673a20.521,20.521,0,0,0,5.437-.057,7.937,7.937,0,0,0,1.88-.376,12.612,12.612,0,0,0,4.639-2.75,1.911,1.911,0,0,0,.509.128c.9-.027,3.122.014,4.085,1.465s.93,4.242.386,5.9c-1.187,3.605-4.657,5.433-8.227,6.719a21.53,21.53,0,0,1-11.545,1.028,6.029,6.029,0,0,1-3.849-2.99,8.259,8.259,0,0,1-.926-3.2l-1.279.453a39.89,39.89,0,0,1-4.814,1.348,17.422,17.422,0,0,1-5.666.386A6.079,6.079,0,0,1,3.6,305.239a7.9,7.9,0,0,1-.9-3.765c-.043-1.312.812-4.468.77-5.781l-.033-1.038,1.035.5c3.164,1.523,13.14,1.708,15.041.334A12.461,12.461,0,0,0,27.548,299.673Z"/><path class="a" d="M74,209.1a8.66,8.66,0,0,0-2.881-1.41,5.067,5.067,0,0,0-4.367.766c-.687.549-1.388,1.385-2.241,1.173-.528-.131-.9-.648-1.429-.762a1.458,1.458,0,0,0-1.43.743,4.085,4.085,0,0,1,.384,1.471c.135,1.957.251,4.065.335,6a4.112,4.112,0,0,1-.889,2.741c6.457,3.115,8.922,4.1,12.988,2.527a5.783,5.783,0,0,0,3.9-5.095,9.727,9.727,0,0,0-3.292-7.305C74.731,209.649,74.374,209.362,74,209.1Z"/><path class="a" d="M20.327,134.115A21.553,21.553,0,0,0,3.243,152.094a22.094,22.094,0,0,0,2.75,13.893c2.435,4.3,8.178,6.7,8.924,11.522a23.288,23.288,0,0,1,6.788.5,69.689,69.689,0,0,1,7.9,1.987c.962-2.361,2.075-5.088,2.075-5.088a13.184,13.184,0,0,0,9.752-4,18.537,18.537,0,0,0,4.838-9.539,23.549,23.549,0,0,0-4.12-18.329,22.768,22.768,0,0,0-19.62-9.18A18.7,18.7,0,0,0,20.327,134.115Z"/><path class="a" d="M116.941,63.371,222.908,2,357.764,80.1V234.97L251.8,296.344,116.941,218.238V63.371Z"/><path class="b" d="M81.273,199.327l-14.4-8.312-2.06-1.189c-2.234-1.29-4.25,2.165-2.019,3.453l14.395,8.312,2.061,1.19c2.234,1.289,4.25-2.166,2.019-3.454Z"/><path class="b" d="M62.878,211.48a5.374,5.374,0,0,0,.324-.617c-.007.026.157-.115.111-.143-.016-.01-.408.119-.446.119-.224,0-.527-.253-.173.057a2.357,2.357,0,0,0,.291.2,3.589,3.589,0,0,0,1.111.472c1.663.386,2.67-.663,3.883-1.551,1.953-1.43,4.587.259,6.03,1.663,1.518,1.475,2.739,4.014,2.291,6a3.578,3.578,0,0,1-1.37,2.167,7.039,7.039,0,0,1-2.775,1.119,5.3,5.3,0,0,1-1.357.12,4.777,4.777,0,0,1-1.4-.173,22.234,22.234,0,0,1-4.205-1.54,2.06,2.06,0,0,0-2.736.717,2.017,2.017,0,0,0,.717,2.737c3,1.363,6.052,2.616,9.407,2.109a8.966,8.966,0,0,0,7.291-5.3c2.605-6.645-4.762-15.339-11.709-13.965a6.481,6.481,0,0,0-2.825,1.374c-.075.061-.758.615-.755.625-.017-.058.945.3.128-.221-2.16-1.373-4.282-.043-5.289,2.019a2.052,2.052,0,0,0,.718,2.736,2.019,2.019,0,0,0,2.736-.717Z"/><path class="a" d="M11.729,178.336c2.481-1.113,5.606-1.176,9.976-.326a50.129,50.129,0,0,1,11.93,3.574,26.8,26.8,0,0,1,8.4,7.441,28.008,28.008,0,0,1,1.912,3.708c.785,1.819,1.628,4.166,2.41,6.535a11.593,11.593,0,0,0,11.3,7.968l.152,0a4.128,4.128,0,0,1,4.228,3.845c.135,1.957.251,4.065.335,6a4.123,4.123,0,0,1-3.3,4.22c-4.888.99-10.38,1.938-15.568,1.026,0,1.883.007,2.98.007,2.98,0,1.4-.022,2.891-.051,4.108-.036,1.485-.077,2.561-.077,2.561.068,1.676-.812,4.5-2.186,5.444-1.222.843-2.852,1.222-6.518,1.889-8.535,1.552-16.074.426-25.818-1.161-1.611-.263-4.326-.975-5.2-2.024-1.111-1.333-.994-2.747-1.113-4.729-.922-15.279-.87-28.48,1.7-41.777a18.892,18.892,0,0,1,3.109-7.486A10.893,10.893,0,0,1,11.729,178.336Z"/><path class="b" d="M238.766,178.32v68.159c0,2.574,4,2.578,4,0V178.32c0-2.574-4-2.578-4,0Z"/><path class="b" d="M123.972,112.044V180.2c0,2.573,4,2.578,4,0V112.044c0-2.574-4-2.578-4,0Z"/><path class="c" d="M126.8,81.6a1.961,1.961,0,0,1,1.97.2l109.206,63.05a6.177,6.177,0,0,1,2.794,4.839v28.63a1.7,1.7,0,0,1-2.794,1.613l-109.206-63.05a6.177,6.177,0,0,1-2.794-4.839V83.414A1.965,1.965,0,0,1,126.8,81.6Z"/><path class="c" d="M126.8,130a1.961,1.961,0,0,1,1.97.2l109.206,63.05a6.177,6.177,0,0,1,2.794,4.84v28.629a1.7,1.7,0,0,1-2.794,1.613l-109.206-63.05a6.175,6.175,0,0,1-2.794-4.839v-28.63A1.965,1.965,0,0,1,126.8,130Z"/><path class="c" d="M126.8,178.39a1.965,1.965,0,0,1,1.97.2l109.206,63.05a6.177,6.177,0,0,1,2.794,4.84v28.629a1.7,1.7,0,0,1-2.794,1.614L128.766,213.671a6.174,6.174,0,0,1-2.794-4.839V180.2A1.965,1.965,0,0,1,126.8,178.39Z"/><path class="b" d="M253.8,296.344V141.477c0-2.574-4-2.578-4,0V296.344c0,2.574,4,2.578,4,0Z"/><path class="b" d="M356.755,233.243l-10.541,6.105L320.9,254.009,290.28,271.744l-26.467,15.329c-4.269,2.473-8.658,4.812-12.838,7.436-.061.038-.125.072-.188.108-2.226,1.29-.215,4.748,2.019,3.454l10.541-6.105,25.312-14.66,30.622-17.735,26.467-15.329c4.269-2.473,8.658-4.812,12.838-7.436.061-.039.125-.073.188-.109,2.226-1.29.215-4.748-2.019-3.454Z"/><path class="b" d="M355.764,80.1V234.97c0,2.574,4,2.578,4,0V80.1c0-2.574-4-2.578-4,0Z"/><path class="b" d="M117.95,65.1l10.541-6.1L153.8,44.333,184.425,26.6l26.466-15.329,8.7-5.036c1.36-.787,2.861-1.489,4.144-2.4.058-.042.126-.073.187-.109H221.9L232.386,9.8,258.66,25.016,292.817,44.8l34.528,20,27.008,15.643,2.4,1.391c2.231,1.292,4.248-2.163,2.019-3.454l-25.561-14.8L299.185,43.864l-34.6-20.041L236.917,7.8c-4.265-2.47-8.473-5.115-12.827-7.429-.059-.031-.115-.067-.173-.1a2.02,2.02,0,0,0-2.018,0L211.358,6.375l-25.313,14.66L155.424,38.771,128.957,54.1c-4.269,2.472-8.659,4.812-12.838,7.435-.061.039-.125.073-.188.109-2.227,1.29-.215,4.748,2.019,3.454Z"/><path class="b" d="M252.806,139.75l-25.56-14.8-34.028-19.708L158.617,85.2,130.95,69.173c-4.265-2.47-8.474-5.115-12.827-7.429-.059-.031-.115-.067-.173-.1-2.232-1.293-4.248,2.163-2.019,3.454l10.487,6.074L152.693,86.39l34.157,19.782,34.528,20,27.008,15.643,2.4,1.391c2.232,1.292,4.248-2.163,2.019-3.454Z"/><path class="b" d="M356.755,78.376l-10.541,6.1L320.9,99.141,290.28,116.876l-26.467,15.329c-4.269,2.473-8.658,4.812-12.838,7.436-.061.039-.125.073-.188.109-2.226,1.29-.215,4.748,2.019,3.454l10.541-6.105,25.312-14.661L319.281,104.7l26.467-15.329c4.269-2.473,8.658-4.812,12.838-7.436.061-.038.125-.072.188-.108,2.226-1.29.215-4.748-2.019-3.454Z"/><path class="b" d="M252.806,294.617l-28.322-16.4L190.06,258.276l-33.613-19.468-26.291-15.227-8.2-4.751a42.3,42.3,0,0,0-3.838-2.223,1.608,1.608,0,0,1-.165-.1l.991,1.727V63.371c0-2.574-4-2.578-4,0V216.246c0,1.342-.28,2.868,1,3.725.554.372,1.167.677,1.744,1.011l30.42,17.618,50.81,29.429,47.393,27.448,4.478,2.594c2.232,1.293,4.248-2.163,2.019-3.454Z"/><path class="a" d="M218.179,146.645c.92-.531,2.21-.449,3.724.426a11.287,11.287,0,0,1,5.232,9.024c0,1.819-.552,3.034-1.486,3.573s-2.229.4-3.746-.477a10.868,10.868,0,0,1-5.231-9.137A3.712,3.712,0,0,1,218.179,146.645Z"/><path class="a" d="M218.179,195.039c.92-.531,2.21-.448,3.724.426a11.287,11.287,0,0,1,5.232,9.024c0,1.82-.552,3.035-1.486,3.574s-2.229.4-3.746-.478a10.867,10.867,0,0,1-5.231-9.137A3.712,3.712,0,0,1,218.179,195.039Z"/><path class="a" d="M218.179,243.433c.92-.531,2.21-.448,3.724.426a11.287,11.287,0,0,1,5.232,9.024c0,1.82-.552,3.035-1.486,3.574s-2.229.4-3.746-.478a10.867,10.867,0,0,1-5.231-9.137A3.712,3.712,0,0,1,218.179,243.433Z"/><path class="b" d="M127.805,83.329c-.555.243-.209.042,0,.228a1.13,1.13,0,0,0,.208.121c.288.156.568.328.852.492l3.243,1.872L143.817,92.8l36.271,20.941,37.186,21.47c6.486,3.745,13.018,7.422,19.464,11.237a4.236,4.236,0,0,1,2.028,3.781v27.12a6.14,6.14,0,0,0,0,.791,1.131,1.131,0,0,0,0,.154c0,.007,0,.019,0,.026a1.144,1.144,0,0,1-.014.248.617.617,0,0,1,.492-.25,4.522,4.522,0,0,1-.534-.269c-.748-.406-1.477-.852-2.214-1.278l-10.161-5.866-34.727-20.05-38.262-22.091L130.769,115.73a5.882,5.882,0,0,1-1.921-1.42c-1.247-1.63-.876-3.917-.876-5.841V84.485a7.2,7.2,0,0,0,0-.844c-.032-.258.169-.551-.167-.312a2.055,2.055,0,0,0,.718-2.736,2.017,2.017,0,0,0-2.737-.718c-2.268,1.609-1.814,4.5-1.814,6.944v21.12c0,2.181-.282,4.652.548,6.716,1.284,3.19,4.018,4.406,6.761,5.99l11.44,6.605,36.934,21.324,38.129,22.014c6.355,3.668,12.644,7.5,19.083,11.017a4.024,4.024,0,0,0,4.29.108c1.342-.891,1.609-2.445,1.609-3.931V150.388a8.355,8.355,0,0,0-3.853-7.3c-.574-.355-1.172-.676-1.757-1.014l-9.755-5.632-35.149-20.293L152.983,93.473l-22.49-12.985c-1.5-.864-2.967-1.375-4.707-.613a2.013,2.013,0,0,0-.717,2.736A2.05,2.05,0,0,0,127.805,83.329Z"/><path class="b" d="M219.189,148.372c.321-.172,0-.005-.062.012.017,0,.51-.142.2-.071-.29.065.719.065.236-.015a3.392,3.392,0,0,1,1.491.593c.21.126.41.265.609.407-.268-.192.221.187.315.272.21.188.411.385.605.589q.13.138.255.279c.046.053.372.441.268.31-.137-.173.1.139.131.177.074.1.147.208.218.313q.24.356.454.728c.126.219.246.442.358.669.056.113.108.227.163.34.26.536-.113-.342.089.212a12.556,12.556,0,0,1,.456,1.482c.059.257.111.517.147.778-.011-.08-.033-.4-.012-.02.007.14.02.279.024.419.01.3,0,.6-.021.9,0,.066-.067.393,0,.064-.023.123-.046.245-.077.366-.034.137-.279.7-.079.32a1.61,1.61,0,0,0-.187.335c-.029.171.241-.215,0,0-.032.029-.375.3-.107.116.245-.168-.027.007-.088.031-.26.106.293-.17.051-.027-.123.072-.462.037-.02.027-.146,0-.716-.069-.349.009-.127-.027-.254-.056-.38-.092.007,0-.536-.188-.325-.1a7.857,7.857,0,0,1-1.443-.853c-.5-.35.148.132-.128-.1-.1-.084-.2-.167-.291-.253q-.36-.324-.688-.679c-.088-.095-.174-.192-.258-.29-.051-.06-.315-.382-.113-.124-.159-.2-.3-.419-.447-.636a11.5,11.5,0,0,1-.837-1.534c.131.29,0-.007-.022-.058-.068-.182-.135-.363-.2-.547-.1-.305-.187-.615-.26-.928-.029-.124-.056-.249-.08-.375-.006-.03-.1-.641-.047-.224a9.413,9.413,0,0,1-.065-.948c0-.135,0-.269,0-.4,0-.08.061-.661,0-.269.041-.273.137-.525.2-.792s-.227.339.029-.054c.031-.048.265-.425.095-.188s.12-.115.136-.133c.255-.295-.3.187.055-.032a2,2,0,0,0-2.019-3.454c-2.956,1.828-2.865,5.931-1.9,8.865a12.686,12.686,0,0,0,5.946,7.31,5.733,5.733,0,0,0,5.308.374,5.021,5.021,0,0,0,2.439-3.59,12.008,12.008,0,0,0-2.22-8.893c-2.029-2.864-5.928-6.017-9.572-4.066a2,2,0,1,0,2.019,3.454Z"/><path class="b" d="M127.805,131.723c-.555.243-.209.042,0,.229a1.126,1.126,0,0,0,.208.12c.288.156.568.328.852.492l3.243,1.872,11.706,6.759,36.271,20.941,37.186,21.469c6.486,3.745,13.018,7.422,19.464,11.237a4.236,4.236,0,0,1,2.028,3.781v27.12a6.14,6.14,0,0,0,0,.791,1.131,1.131,0,0,0,0,.154c0,.007,0,.019,0,.026a1.144,1.144,0,0,1-.014.248.62.62,0,0,1,.492-.25,4.5,4.5,0,0,1-.534-.268c-.748-.407-1.477-.853-2.214-1.279L226.335,219.3,191.608,199.25l-38.262-22.091-22.577-13.035a5.893,5.893,0,0,1-1.921-1.419c-1.247-1.631-.876-3.918-.876-5.842V132.88a7.219,7.219,0,0,0,0-.845c-.032-.258.169-.55-.167-.312a2.055,2.055,0,0,0,.718-2.736,2.017,2.017,0,0,0-2.737-.718c-2.268,1.609-1.814,4.5-1.814,6.944v21.12c0,2.181-.282,4.652.548,6.716,1.284,3.191,4.018,4.406,6.761,5.99l11.44,6.605,36.934,21.324,38.129,22.014c6.355,3.669,12.644,7.5,19.083,11.017a4.022,4.022,0,0,0,4.29.108c1.342-.89,1.609-2.445,1.609-3.931V198.782a8.354,8.354,0,0,0-3.853-7.3c-.574-.356-1.172-.677-1.757-1.014l-9.755-5.632-35.149-20.294-39.269-22.672-22.49-12.985c-1.5-.863-2.967-1.374-4.707-.613a2.015,2.015,0,0,0-.717,2.737A2.05,2.05,0,0,0,127.805,131.723Z"/><path class="b" d="M192.879,134.089,175.571,124.1l-27.588-15.929-6.333-3.656c-2.233-1.289-4.25,2.166-2.019,3.454l17.309,9.993,27.588,15.928,6.333,3.657c2.233,1.289,4.249-2.166,2.018-3.454Z"/><path class="b" d="M219.189,196.766c.321-.172,0,0-.062.012.017,0,.51-.141.2-.071-.29.065.719.065.236-.015a3.392,3.392,0,0,1,1.491.593c.21.126.41.265.609.407-.268-.192.221.188.315.272.21.188.411.385.605.59q.13.137.255.279c.046.052.372.44.268.309-.137-.173.1.14.131.177.074.1.147.208.218.313q.24.356.454.728c.126.219.246.442.358.669.056.113.108.227.163.341.26.535-.113-.343.089.212a12.483,12.483,0,0,1,.456,1.481c.059.257.111.517.147.778-.011-.079-.033-.4-.012-.02.007.14.02.279.024.42.01.3,0,.6-.021.9,0,.066-.067.394,0,.065-.023.122-.046.244-.077.365-.034.137-.279.7-.079.32a1.636,1.636,0,0,0-.187.335c-.029.171.241-.215,0,0-.032.029-.375.3-.107.116.245-.168-.027.007-.088.032-.26.1.293-.171.051-.028-.123.072-.462.037-.02.027-.146,0-.716-.069-.349.009-.127-.027-.254-.056-.38-.092.007,0-.536-.188-.325-.1a7.857,7.857,0,0,1-1.443-.853c-.5-.35.148.132-.128-.1-.1-.083-.2-.167-.291-.253q-.36-.322-.688-.679c-.088-.095-.174-.191-.258-.289-.051-.06-.315-.383-.113-.124-.159-.2-.3-.42-.447-.636a11.622,11.622,0,0,1-.837-1.534c.131.289,0-.007-.022-.059-.068-.182-.135-.363-.2-.547q-.15-.458-.26-.927c-.029-.125-.056-.25-.08-.376-.006-.03-.1-.64-.047-.224a9.393,9.393,0,0,1-.065-.948c0-.134,0-.269,0-.4,0-.081.061-.662,0-.269.041-.274.137-.526.2-.792s-.227.338.029-.055c.031-.048.265-.425.095-.187s.12-.115.136-.134c.255-.3-.3.187.055-.032a2,2,0,0,0-2.019-3.454c-2.956,1.828-2.865,5.931-1.9,8.865a12.683,12.683,0,0,0,5.946,7.31,5.73,5.73,0,0,0,5.308.374,5.021,5.021,0,0,0,2.439-3.59,12.009,12.009,0,0,0-2.22-8.893c-2.029-2.863-5.928-6.016-9.572-4.066a2,2,0,1,0,2.019,3.454Z"/><path class="b" d="M127.805,180.117c-.555.243-.209.042,0,.229a1.126,1.126,0,0,0,.208.12c.288.156.568.328.852.492l3.243,1.873,11.706,6.758,36.271,20.941L217.274,232c6.486,3.745,13.018,7.422,19.464,11.238a4.233,4.233,0,0,1,2.028,3.78v27.12a6.14,6.14,0,0,0,0,.791,1.145,1.145,0,0,0,0,.155c0,.006,0,.018,0,.025a1.141,1.141,0,0,1-.014.248.62.62,0,0,1,.492-.25,4.5,4.5,0,0,1-.534-.268c-.748-.407-1.477-.853-2.214-1.278l-10.161-5.866-34.727-20.05-38.262-22.091-22.577-13.034a5.91,5.91,0,0,1-1.921-1.42c-1.247-1.63-.876-3.918-.876-5.842V181.274a7.219,7.219,0,0,0,0-.845c-.032-.257.169-.55-.167-.312a2.055,2.055,0,0,0,.718-2.736,2.016,2.016,0,0,0-2.737-.717c-2.268,1.608-1.814,4.5-1.814,6.943v21.12c0,2.182-.282,4.653.548,6.716,1.284,3.191,4.018,4.407,6.761,5.991l11.44,6.6,36.934,21.324,38.129,22.014c6.355,3.669,12.644,7.5,19.083,11.017a4.024,4.024,0,0,0,4.29.109c1.342-.891,1.609-2.446,1.609-3.932V247.176a8.354,8.354,0,0,0-3.853-7.3c-.574-.355-1.172-.677-1.757-1.014l-9.755-5.632-35.149-20.294-39.269-22.672-22.49-12.984c-1.5-.864-2.967-1.375-4.707-.613a2.013,2.013,0,0,0-.717,2.736A2.05,2.05,0,0,0,127.805,180.117Z"/><path class="b" d="M192.879,182.483l-17.308-9.993-27.588-15.928-6.333-3.656c-2.233-1.29-4.25,2.165-2.019,3.453l17.309,9.994,27.588,15.928,6.333,3.656c2.233,1.289,4.249-2.166,2.018-3.454Z"/><path class="b" d="M219.189,245.16c.321-.172,0,0-.062.012.017,0,.51-.141.2-.071-.29.065.719.065.236-.015a3.4,3.4,0,0,1,1.491.593c.21.127.41.265.609.407-.268-.192.221.188.315.272.21.188.411.385.605.59q.13.136.255.279c.046.052.372.441.268.309-.137-.173.1.14.131.178.074.1.147.207.218.312.16.238.311.48.454.728.126.219.246.442.358.669.056.113.108.228.163.341.26.535-.113-.343.089.212a12.6,12.6,0,0,1,.456,1.481c.059.257.111.517.147.779-.011-.08-.033-.4-.012-.021.007.14.02.28.024.42.01.3,0,.6-.021.9,0,.067-.067.394,0,.065-.023.122-.046.244-.077.365-.034.138-.279.7-.079.32a1.643,1.643,0,0,0-.187.336c-.029.17.241-.215,0,0-.032.029-.375.3-.107.116.245-.167-.027.007-.088.032-.26.105.293-.171.051-.028-.123.073-.462.037-.02.027-.146,0-.716-.069-.349.009-.127-.027-.254-.056-.38-.092.007,0-.536-.188-.325-.1a7.857,7.857,0,0,1-1.443-.853c-.5-.35.148.132-.128-.1-.1-.083-.2-.166-.291-.253q-.36-.322-.688-.679c-.088-.095-.174-.191-.258-.289-.051-.06-.315-.382-.113-.124-.159-.2-.3-.42-.447-.636a11.622,11.622,0,0,1-.837-1.534c.131.289,0-.007-.022-.059-.068-.181-.135-.362-.2-.546q-.15-.459-.26-.928c-.029-.125-.056-.25-.08-.376-.006-.03-.1-.64-.047-.224a9.373,9.373,0,0,1-.065-.948c0-.134,0-.269,0-.4,0-.081.061-.661,0-.269.041-.273.137-.525.2-.792s-.227.339.029-.055c.031-.048.265-.425.095-.187s.12-.115.136-.134c.255-.3-.3.187.055-.032a2,2,0,0,0-2.019-3.454c-2.956,1.828-2.865,5.931-1.9,8.865a12.68,12.68,0,0,0,5.946,7.31,5.733,5.733,0,0,0,5.308.375,5.025,5.025,0,0,0,2.439-3.591,12.01,12.01,0,0,0-2.22-8.893c-2.029-2.863-5.928-6.016-9.572-4.066a2,2,0,1,0,2.019,3.454Z"/><path class="b" d="M192.879,230.877l-17.308-9.993-27.588-15.928L141.65,201.3c-2.233-1.29-4.25,2.166-2.019,3.454l17.309,9.993,27.588,15.928,6.333,3.656c2.233,1.289,4.249-2.166,2.018-3.454Z"/><path class="b" d="M72.592,299.174q13.733-7.937,27.452-15.9,2.374-1.374,4.747-2.748c2.228-1.288.216-4.746-2.019-3.454q-13.812,7.987-27.615,15.991-2.292,1.326-4.584,2.653c-2.228,1.288-.217,4.746,2.019,3.454Z"/><path class="b" d="M53.759,224.029l13.329,7.729c1.16.672,2.323,1.339,3.482,2.014,2.229,1.3,4.245-2.158,2.019-3.454q-7.317-4.262-14.653-8.492l-2.158-1.251c-2.231-1.294-4.247,2.162-2.019,3.454Z"/><path class="b" d="M69.494,232.6v64.851c0,2.574,4,2.578,4,0V232.6c0-2.573-4-2.578-4,0Z"/><path class="b" d="M36.5,152.5a3.044,3.044,0,0,0,1.431,2.176,2.37,2.37,0,0,0,1.764.18,2.653,2.653,0,0,0,1.786-1.6,3.1,3.1,0,0,0-1.069-3.493,2.456,2.456,0,0,0-3.312.467A2.74,2.74,0,0,0,36.5,152.5Z"/><path class="c" d="M26.071,240.047a46.589,46.589,0,0,0,8.606-.741c4.126-.75,5.673-1.137,6.962-2.229.076,9.009-.637,44.383-1.336,57.241l-.213,1.067c-.308,1.541-2.7,2.852-5.225,3.855a7.937,7.937,0,0,1-1.88.376c-4.673.629-9.871.028-13.477-4.119-2.311,1.671-16.719,1.019-15.964-1.56.465-12.777.875-38.592.5-50.05,0,0,.1-3.93.188-7.27a13.644,13.644,0,0,0,4.624,1.528A110.52,110.52,0,0,0,26.071,240.047Z"/><path class="b" d="M39.64,239.554c-.046,14.883-.418,29.777-.919,44.651-.115,3.414-.238,6.828-.424,10.239-.14,2.572,3.86,2.564,4,0,.809-14.858,1.011-29.767,1.236-44.642.051-3.416.1-6.832.107-10.248.008-2.575-3.992-2.578-4,0Z"/><path class="b" d="M2.047,243.887q-.315,20.781-.508,41.565-.042,5.121-.063,10.241c-.008,2.574,3.992,2.578,4,0,.042-13.736.23-27.472.419-41.207q.072-5.3.152-10.6c.039-2.575-3.961-2.576-4,0Z"/><path class="b" d="M18.121,256.164c-.281,11.141-.424,22.288-.56,33.432-.024,1.967-.052,3.934-.053,5.9,0,2.574,4,2.578,4,0,.005-10.552.257-21.109.453-31.659.048-2.558.1-5.116.16-7.674.065-2.575-3.935-2.573-4,0Z"/><path class="b" d="M38.161,294.853c-.066.224-.069.254-.007.089q-.2.289-.069.14a5.548,5.548,0,0,1-.553.542,10.71,10.71,0,0,1-2.133,1.223,11.267,11.267,0,0,1-4.476.958,12.557,12.557,0,0,1-8.535-2.293,2.061,2.061,0,0,0-2.828,0,2.014,2.014,0,0,0,0,2.829,16.789,16.789,0,0,0,11.956,3.428,21.615,21.615,0,0,0,3.27-.417,14.292,14.292,0,0,0,3.072-1.267c1.747-.881,3.644-2.161,4.16-4.169.642-2.494-3.215-3.558-3.857-1.063Z"/><path class="b" d="M18.207,293.919a9.712,9.712,0,0,1-1.327.3c-.124.019-.576.066-.047.009-.128.014-.255.03-.384.043q-.445.047-.894.076a36.226,36.226,0,0,1-3.913.036q-.984-.04-1.964-.129c-.332-.03-.663-.066-.993-.105-.186-.021-.372-.051-.079-.008-.169-.025-.337-.05-.506-.077-.564-.092-1.126-.2-1.679-.346q-.329-.086-.65-.19c-.116-.039-.232-.088-.349-.124-.358-.111.411.186.066.025a2.058,2.058,0,0,0-2.737.717,2.017,2.017,0,0,0,.718,2.736,21.192,21.192,0,0,0,7.984,1.493,23.472,23.472,0,0,0,7.817-.6,2,2,0,0,0-1.063-3.857Z"/><path class="b" d="M41.022,298.345c-.37.178-.226.033-.1.09.262.119.581.123.85.247a1.633,1.633,0,0,1,.959,1.311,6.273,6.273,0,0,1-.69,4.541c-1.823,3.041-6.14,4.411-9.389,5.122-3.312.726-8.565,1.338-10.281-2.359.192.414-.1-.29-.123-.372-.084-.266-.148-.536-.21-.808a8.735,8.735,0,0,1-.174-1.752,23.545,23.545,0,0,1,.729-5.828c.578-2.5-3.278-3.575-3.857-1.063-.781,3.388-1.442,7.306-.285,10.7a8.626,8.626,0,0,0,2.82,4.045c1.866,1.468,4.2,1.787,6.51,1.875a25.485,25.485,0,0,0,13.042-3.236c3.54-1.969,5.987-5.239,6.039-9.386.027-2.163-.534-4.414-2.339-5.759a5.5,5.5,0,0,0-5.521-.82c-2.32,1.113-.293,4.563,2.019,3.454Z"/><path class="b" d="M1.476,295.693c0,.2-.007.4-.024.592q-.016.175-.039.351.043-.33-.012.044c-.087.493-.169.987-.258,1.48A19.138,19.138,0,0,0,.7,301.341a8,8,0,0,0,3.165,6.943c2.154,1.475,5.04,1.707,7.567,1.435a36.059,36.059,0,0,0,7.754-1.807,2.046,2.046,0,0,0,1.4-2.46,2.019,2.019,0,0,0-2.46-1.4,34.626,34.626,0,0,1-6.451,1.635c-1.9.259-4.046.281-5.594-.731A2.764,2.764,0,0,1,4.9,303.121a7.194,7.194,0,0,1-.154-2.41c.039-.433-.058.284.032-.224.037-.207.068-.414.1-.62.088-.5.183-1,.271-1.5a14.853,14.853,0,0,0,.321-2.671c-.026-2.572-4.026-2.579-4,0Z"/><path class="d" d="M29.844,134.625a22.91,22.91,0,0,0-7.313-.766c-9.717.55-17.9,8.607-19.288,18.235a22.094,22.094,0,0,0,2.75,13.893c1.814,3.2,5.463,5.352,7.515,8.233.122-.021.2-.037.2-.037l.233-.04a19.3,19.3,0,0,0,11.218-9.138,9.678,9.678,0,0,1-3.661-3.211,6.134,6.134,0,0,1-.528-5.927,4.5,4.5,0,0,1,5-2.214,40.149,40.149,0,0,0,13.241-13.877A22.729,22.729,0,0,0,29.844,134.625Z"/><path class="b" d="M16.689,176.245c-1-3.367-3.666-5.581-6.119-7.91a17.574,17.574,0,0,1-5.167-9.6,19.56,19.56,0,0,1,6.927-18.773C17.7,135.507,25,134.8,31.41,137.236a21.1,21.1,0,0,1,13.115,16.89c1.073,8.126-3.193,19.076-12.844,18.783-2.574-.078-2.572,3.922,0,4,9.919.3,16.173-8.992,16.933-17.983A25.386,25.386,0,0,0,37.42,135.867a23.843,23.843,0,0,0-23.512-1.675,23.874,23.874,0,0,0-12.77,18.771A22.9,22.9,0,0,0,4.9,167.982,33.6,33.6,0,0,0,9.387,172.7c1.4,1.32,2.882,2.712,3.445,4.613.73,2.462,4.592,1.414,3.857-1.063Z"/><path class="b" d="M36.74,140.01c-.382.61-.776,1.211-1.188,1.8q-.3.42-.6.834c-.1.137-.2.274-.308.411a1.947,1.947,0,0,1-.19.244,41.715,41.715,0,0,1-2.782,3.159,36.522,36.522,0,0,1-6.323,5.222,2,2,0,0,0,2.018,3.454,42.946,42.946,0,0,0,12.827-13.1,2.019,2.019,0,0,0-.718-2.736,2.041,2.041,0,0,0-2.736.717Z"/><path class="b" d="M26.549,151.737a6.552,6.552,0,0,0-5.466,1.048,6.67,6.67,0,0,0-2.651,5.519c.052,4.345,3.462,7.748,7.367,9.126a2.014,2.014,0,0,0,2.461-1.4,2.05,2.05,0,0,0-1.4-2.46c-.029-.011-.58-.222-.2-.064-.171-.071-.339-.154-.5-.238a9.8,9.8,0,0,1-.9-.52c-.159-.1-.315-.212-.47-.324s.138.132-.12-.1c-.285-.253-.568-.5-.829-.781-.129-.137-.251-.279-.374-.423-.265-.311.1.19-.136-.187-.178-.286-.334-.584-.508-.872-.109-.178.061.22-.052-.119-.059-.176-.121-.351-.17-.53s-.088-.361-.126-.543c-.115-.556,0,.363-.024-.2-.013-.339,0-.667.012-1,.015-.149.011-.121-.01.083.015-.088.034-.176.055-.264.034-.145.083-.286.12-.43.109-.425-.124.172.073-.18.08-.143.159-.281.248-.419.259-.4-.257.229.09-.1.117-.11.23-.223.348-.332-.2.181-.128.091.045-.022a4.408,4.408,0,0,1,.416-.241c.192-.1.289-.107.035-.025.153-.049.3-.1.459-.143.1-.024.6-.086.1-.044.16-.013.317-.027.478-.028s.319.01.477.025c-.347-.033-.111-.006.1.046a2,2,0,0,0,1.063-3.858Z"/><path class="b" d="M22.8,165.055c-.3.468-.616.924-.952,1.367.278-.368-.058.068-.094.112-.069.084-.139.168-.209.251-.176.207-.355.41-.539.609q-.548.591-1.144,1.135c-.2.18-.4.355-.6.527-.122.1-.247.2-.371.3-.295.238.158-.109-.039.028a23.942,23.942,0,0,1-2.707,1.692c-.238.123-.479.242-.721.356-.122.057-.244.113-.367.167-.049.022-.467.2-.206.091s-.162.063-.212.082c-.126.05-.253.1-.38.145-.281.1-.565.2-.849.295a2,2,0,0,0,1.063,3.857,21.944,21.944,0,0,0,11.785-9,2.017,2.017,0,0,0-.717-2.737,2.045,2.045,0,0,0-2.737.718Z"/><path class="b" d="M41.509,225.3c0,1.98-.039,3.959-.1,5.938a8.792,8.792,0,0,1-.568,3.357,3.4,3.4,0,0,1-.829,1.219,3.319,3.319,0,0,1-.951.453,30.405,30.405,0,0,1-4.446,1.021c-7.616,1.4-15.252.514-22.83-.69a31.814,31.814,0,0,1-5.1-1.047c-1.263-.42-1.863-.862-2.032-2.235-.5-4.084-.467-8.339-.574-12.451a156.408,156.408,0,0,1,1-23.958c.475-3.7.863-7.779,2.48-11.185,1.1-2.328,2.8-4.728,5.29-5.7,2.691-1.052,5.811-.582,8.558-.041a54.545,54.545,0,0,1,10.048,2.789,21.454,21.454,0,0,1,7.406,5.507c2.266,2.457,3.475,5.568,4.589,8.677,1.2,3.354,2.2,6.57,5.021,8.956a13.876,13.876,0,0,0,9.008,3.324,2.264,2.264,0,0,1,2.526,1.692,32.208,32.208,0,0,1,.357,5.923,2.254,2.254,0,0,1-1.825,2.517,45.312,45.312,0,0,1-5.9,1.021,35.713,35.713,0,0,1-6.21.261,12.984,12.984,0,0,1-5.056-1.022c-2.661-1.34-4.351-4.025-5.6-6.629a31.391,31.391,0,0,1-1.614-4.239c-.762-2.45-4.625-1.4-3.857,1.063a29.091,29.091,0,0,0,4.9,9.773c2.562,3.17,5.873,4.519,9.853,4.944,4.648.5,9.357-.281,13.907-1.186a6.482,6.482,0,0,0,4.539-2.942c1.124-1.9.855-3.991.74-6.095-.112-2.049.021-4.334-1.086-6.151a6.183,6.183,0,0,0-4.656-2.9,15.626,15.626,0,0,1-4.806-.749,9.774,9.774,0,0,1-3.933-3.016,16.832,16.832,0,0,1-2.22-4.968,59.205,59.205,0,0,0-2.443-6.059,24.194,24.194,0,0,0-7.435-8.654,26.758,26.758,0,0,0-9.075-4.229,43.4,43.4,0,0,0-12.27-2.164,12.552,12.552,0,0,0-8.451,3.1,19.146,19.146,0,0,0-5.5,10.337A131.407,131.407,0,0,0,0,215.361c0,4.775.179,9.548.445,14.315.111,1.988-.029,4.228.725,6.1a6.173,6.173,0,0,0,3.955,3.459,29.365,29.365,0,0,0,5.828,1.257c2.267.359,4.538.7,6.817.974a61.231,61.231,0,0,0,12.707.4,60.827,60.827,0,0,0,6.468-.96,18.118,18.118,0,0,0,4.482-1.318c2.943-1.429,3.89-4.93,3.966-7.952.052-2.112.117-4.222.116-6.335,0-2.574-4-2.578-4,0Z"/></svg>