<?xml version="1.0" encoding="iso-8859-1"?>
<!-- Uploaded to: SVG Repo, www.svgrepo.com, Generator: SVG Repo Mixer Tools -->
<svg version="1.1" id="Layer_1" xmlns="http://www.w3.org/2000/svg" xmlns:xlink="http://www.w3.org/1999/xlink" 
	 viewBox="0 0 512.004 512.004" xml:space="preserve">
<polyline style="fill:#75C0C7;" points="15.371,512 15.371,391.554 39.461,357.555 135.817,357.555 160.424,391.554 160.424,512 "/>
<rect x="23.401" y="391.558" style="fill:#589095;" width="48.337" height="120.446"/>
<polygon style="fill:#E0DCCD;" points="159.906,391.554 15.371,391.554 39.461,359.435 135.817,359.435 "/>
<polygon style="fill:#A8A59A;" points="71.58,391.554 15.371,391.554 30.093,359.435 88.978,359.435 "/>
<polyline style="fill:#1E834E;" points="135.379,271.985 200.079,271.985 200.079,190.811 159.906,150.934 135.379,150.934 "/>
<polygon style="fill:#E0DCCD;" points="160.424,150.663 160.424,222.938 200.079,222.938 200.079,190.811 "/>
<rect x="175.964" y="222.932" style="fill:#4BAF78;" width="24.085" height="48.18"/>
<rect x="63.55" y="335.343" style="fill:#1E834E;" width="48.18" height="24.085"/>
<path style="fill:#75C0C7;" d="M135.379,134.603c0-26.608-20.873-48.178-47.481-48.178s-47.481,21.57-47.481,48.178v201.038h94.962
	V134.603z"/>
<rect x="63.55" y="190.812" style="fill:#E0DCCD;" width="48.18" height="72.265"/>
<circle style="fill:#4BAF78;" cx="87.639" cy="134.607" r="24.085"/>
<rect x="63.55" y="190.812" style="fill:#A8A59A;" width="24.085" height="72.265"/>
<path style="fill:#589095;" d="M103.77,89.225c-5.03-1.781-9.977-2.801-15.618-2.801c-26.608,0-47.736,21.57-47.736,48.178V335.64
	h31.306V134.603C71.723,113.636,85.07,95.846,103.77,89.225z"/>
<path style="fill:#4BAF78;" d="M121.529,104.499L356.407,8.796c8.335-3.034,17.55,1.264,20.584,9.599s-1.264,17.55-9.599,20.584
	l-234.878,95.703"/>
<rect x="232.43" y="343.378" style="fill:#75C0C7;" width="272.365" height="24.085"/>
<polygon style="fill:#1E834E;" points="151.877,126.573 135.817,126.573 127.788,102.484 151.877,94.455 "/>
<rect x="232.43" y="343.378" style="fill:#589095;" width="104.135" height="24.085"/>
<rect x="240.205" y="367.463" style="fill:#FCBB3B;" width="256.952" height="128.471"/>
<rect x="240.205" y="367.463" style="fill:#BD8C2C;" width="96.361" height="128.471"/>
<path d="M504.981,503.767H232.376V359.638H504.98v144.129H504.981z M248.029,488.114h241.299V375.292H248.029V488.114z"/>
<rect x="296.087" y="391.997" width="15.653" height="81.396"/>
<rect x="264.78" y="391.997" width="15.653" height="81.396"/>
<rect x="328.436" y="391.997" width="15.653" height="81.396"/>
<rect x="360.786" y="391.997" width="15.653" height="81.396"/>
<rect x="393.136" y="391.997" width="15.653" height="81.396"/>
<rect x="424.443" y="391.997" width="15.653" height="81.396"/>
<rect x="456.792" y="391.997" width="15.653" height="81.396"/>
<polygon points="489.14,336.685 489.14,327.293 473.487,327.293 473.487,336.685 262.691,336.685 262.691,327.293 247.038,327.293 
	247.038,336.685 232.428,336.685 232.428,352.338 504.793,352.338 504.793,336.685 "/>
<polygon points="387.553,215.634 376.437,215.634 376.437,198.937 360.784,198.937 360.784,215.634 349.831,215.634 
	247.038,299.512 247.038,318.944 262.691,318.944 262.691,306.943 355.408,231.287 381.923,231.287 473.487,306.913 
	473.487,318.944 489.14,318.944 489.14,299.541 "/>
<path d="M87.639,166.519c-17.598,0-31.916-14.317-31.916-31.916s14.317-31.916,31.916-31.916s31.916,14.317,31.916,31.916
	S105.237,166.519,87.639,166.519z M87.639,118.341c-8.967,0-16.263,7.295-16.263,16.263s7.295,16.263,16.263,16.263
	s16.263-7.295,16.263-16.263S96.606,118.341,87.639,118.341z"/>
<rect x="360.786" y="78.934" width="15.653" height="111.659"/>
<path d="M119.555,270.905H55.723v-87.921h63.831C119.555,182.984,119.555,270.905,119.555,270.905z M71.376,255.252h32.525v-56.614
	H71.376V255.252z"/>
<rect x="71.725" y="280.337" width="33.393" height="15.653"/>
<rect x="71.725" y="303.295" width="33.393" height="15.653"/>
<rect x="71.725" y="376.343" width="33.393" height="15.653"/>
<rect x="71.725" y="401.388" width="33.393" height="15.653"/>
<rect x="71.725" y="423.303" width="33.393" height="15.653"/>
<rect x="71.725" y="448.348" width="33.393" height="15.653"/>
<rect x="71.725" y="473.393" width="33.393" height="15.653"/>
<rect x="71.725" y="496.351" width="33.393" height="15.653"/>
<rect x="80.073" y="126.937" style="fill:#FFFFFF;" width="16.697" height="15.653"/>
<path d="M384.345,15.718c-4.505-12.376-18.24-18.781-30.617-14.276l-0.139,0.051L125.878,94.276
	c-10.312-10.11-23.934-15.677-38.503-15.677c-14.947,0-28.906,5.846-39.308,16.46c-10.318,10.527-16,24.571-16,39.545v209.386
	h21.914v6.261H35.5L7.023,388.987V512h15.653V400.341h39.655v-15.653H29.612l13.809-18.784h88.385l13.514,18.784h-33.943v15.653
	h40.698V512h15.653V389.032l-27.9-38.781h-21.146v-6.261h24.001v-63.656h64.7v-92.781l-44.253-43.923h-20.447v-4.641l218.101-88.867
	V70.58h15.653V42.842C384.483,36.663,387.995,25.745,384.345,15.718z M103.029,350.251H69.636v-6.261h33.393V350.251z
	 M127.031,328.336H47.721V134.603c0-22.627,17.418-40.352,39.655-40.352s39.655,17.725,39.655,40.352V328.336z M167.729,170.247
	l24.001,23.823v21.564h-24.001V170.247z M152.076,159.282v72.005h39.655v33.393h-49.047V159.282H152.076z M141.419,122.601
	c-1.15-5.424-3.078-10.61-5.73-15.419l223.512-91.072c4.233-1.471,8.896,0.736,10.435,4.961c1.552,4.266-0.655,9.001-4.921,10.552
	l-0.139,0.051L141.419,122.601z"/>
</svg>